<?xml version="1.0" standalone="no"?>
<!DOCTYPE svg PUBLIC "-//W3C//DTD SVG 20010904//EN"
 "http://www.w3.org/TR/2001/REC-SVG-20010904/DTD/svg10.dtd">
<svg version="1.0" xmlns="http://www.w3.org/2000/svg"
 width="756.000000pt" height="756.000000pt" viewBox="0 0 756.000000 756.000000"
 preserveAspectRatio="xMidYMid meet">
<metadata>
Created by potrace 1.11, written by Peter Selinger 2001-2013
</metadata>
<g transform="translate(0.000000,756.000000) scale(0.100000,-0.100000)"
fill="#000000" stroke="none">
<path d="M425 4901 c-76 -19 -143 -70 -178 -136 -22 -40 -22 -47 -25 -638 -2
-392 1 -611 8 -636 18 -67 69 -132 129 -163 l53 -28 718 0 718 0 4 -227 c4
-245 8 -265 62 -336 14 -19 50 -47 78 -63 l53 -29 2040 -3 c2285 -3 2106 -8
2192 70 77 72 77 73 83 343 l5 240 405 5 c358 4 409 7 436 22 57 31 97 71 120
123 l24 50 0 605 0 605 -24 50 c-12 28 -41 67 -64 87 -82 74 229 68 -3476 67
-1832 -1 -3344 -4 -3361 -8z m6718 -125 c18 -7 43 -26 57 -41 l25 -27 3 -594
c3 -657 5 -634 -61 -674 -32 -20 -77 -20 -3382 -20 -3260 0 -3351 1 -3381 19
-65 40 -64 28 -64 666 0 613 -1 604 48 648 11 10 33 22 48 27 16 4 1524 9
3352 9 2794 1 3328 -1 3355 -13z m-903 -1696 c0 -245 -4 -265 -63 -297 -30
-17 -141 -18 -2072 -18 -1987 0 -2041 0 -2068 19 -56 38 -61 62 -65 284 -2
112 -1 209 2 217 5 13 281 15 2136 15 l2130 0 0 -220z"/>
<path d="M430 4700 c-20 -20 -20 -33 -20 -599 l0 -580 26 -20 27 -21 3323 0
3323 0 28 24 28 24 3 544 c2 298 0 558 -3 576 -3 18 -15 42 -26 53 -19 19 -64
19 -3354 19 -3322 0 -3335 0 -3355 -20z m4032 -213 c28 -36 23 -93 -11 -128
-39 -38 -87 -39 -130 -3 -56 47 -37 144 32 162 41 11 87 -2 109 -31z m-3532
-127 l0 -140 115 0 115 0 0 129 0 129 44 11 c25 6 61 11 80 11 l36 0 0 -365 0
-365 -80 0 -79 0 -3 148 -3 147 -112 3 -112 3 -3 -148 -3 -148 -82 -3 -83 -3
0 349 0 349 43 13 c23 7 47 14 52 15 6 2 25 4 43 4 l32 1 0 -140z m2340 -36
c0 -105 0 -106 23 -101 106 26 178 12 215 -43 22 -33 23 -42 20 -177 -3 -124
-6 -145 -24 -170 -37 -51 -86 -67 -204 -66 -58 0 -120 3 -137 7 l-33 8 0 303
0 303 43 16 c104 37 97 42 97 -80z m950 -224 l0 -330 -65 0 -65 0 0 310 c0
308 0 309 22 321 27 14 67 27 91 28 16 1 17 -21 17 -329z m-1200 250 l0 -70
-70 0 -70 0 0 60 c0 58 1 60 33 69 17 5 49 10 70 10 l37 1 0 -70z m2012 -266
l108 -315 -42 3 -41 3 -32 95 -32 95 -118 0 -118 0 -32 -95 -32 -95 -36 -3
c-20 -2 -37 1 -37 7 0 7 176 532 205 609 3 7 23 12 52 12 l48 0 107 -316z
m-3291 131 c53 -28 59 -55 59 -260 l0 -185 -54 0 c-36 0 -56 4 -59 14 -4 11
-16 10 -64 -6 -116 -38 -183 8 -183 125 0 32 5 67 10 78 18 34 64 49 146 49
l77 0 -6 37 c-4 20 -12 40 -19 45 -7 5 -52 7 -99 5 l-87 -4 -6 49 c-4 28 -5
52 -3 54 2 3 31 8 63 14 76 11 187 4 225 -15z m522 5 c39 -31 47 -77 47 -272
l0 -178 -70 0 -70 0 0 165 0 165 -29 0 c-15 0 -42 -5 -59 -11 l-31 -11 -3
-151 -3 -152 -67 -3 -68 -3 0 185 0 186 70 35 c129 65 236 82 283 45z m486 4
c44 -31 51 -69 51 -269 l0 -185 -70 0 -70 0 0 165 0 165 -29 0 c-15 0 -42 -5
-60 -11 l-31 -11 0 -154 0 -154 -70 0 -70 0 0 185 0 185 70 35 c122 61 233 81
279 49z m1167 -10 c54 -26 64 -67 64 -269 l0 -175 -55 0 c-39 0 -57 4 -61 14
-5 12 -11 12 -42 -1 -20 -9 -60 -16 -89 -16 -42 -1 -57 3 -77 22 -55 51 -61
161 -12 210 24 23 35 26 111 30 l85 3 0 33 c0 50 -18 59 -115 53 -47 -3 -85
-3 -85 1 -1 3 -5 25 -9 49 -10 50 -10 50 72 62 68 11 173 3 213 -16z m-901
-214 l0 -225 -67 -3 -68 -3 0 231 0 231 68 -3 67 -3 0 -225z m2425 195 c0 -33
-2 -35 -36 -35 -45 0 -87 -40 -103 -96 -6 -21 -11 -96 -11 -166 l0 -128 -35 0
-35 0 0 225 0 225 29 0 c28 0 30 -2 33 -47 l3 -48 18 33 c21 39 71 72 110 72
24 0 27 -3 27 -35z m329 14 c20 -11 47 -35 59 -53 23 -33 44 -129 35 -153 -4
-10 -44 -13 -165 -13 l-161 0 6 -42 c12 -89 73 -131 182 -125 39 2 77 7 86 11
12 5 18 1 21 -19 7 -36 -24 -48 -132 -49 -75 -1 -90 2 -132 26 -84 50 -121
174 -86 289 14 48 72 117 112 135 48 21 132 17 175 -7z m487 5 c18 -9 44 -33
56 -53 21 -33 23 -50 26 -213 l4 -178 -35 0 -35 0 -4 158 c-5 210 -26 250
-125 239 -92 -10 -113 -56 -113 -252 l0 -145 -35 0 -34 0 -3 225 -3 225 33 0
c30 0 32 -2 32 -35 0 -41 6 -43 31 -11 42 53 138 72 205 40z m444 -2 c22 -12
43 -34 57 -63 20 -39 22 -62 25 -212 l3 -167 -31 0 c-27 0 -32 4 -38 32 l-6
32 -28 -27 c-104 -99 -264 -34 -249 102 4 36 13 52 44 82 39 36 79 50 186 64
48 6 48 7 42 38 -15 72 -89 103 -175 73 -47 -16 -64 -10 -58 20 8 41 164 59
228 26z m-2120 -187 l0 -25 -115 0 -115 0 0 25 0 25 115 0 115 0 0 -25z"/>
<path d="M4337 4472 c-23 -25 -21 -68 3 -92 58 -58 142 20 94 88 -19 28 -74
30 -97 4z m78 -1 c3 -6 -4 -15 -15 -21 -23 -12 -27 -40 -6 -40 8 0 16 -7 20
-15 4 -11 -2 -15 -22 -15 -35 0 -52 16 -52 50 0 14 5 31 12 38 14 14 54 16 63
3z"/>
<path d="M3310 4107 l-35 -12 0 -105 0 -105 44 2 c64 3 75 19 79 112 4 70 2
81 -17 100 -24 24 -24 24 -71 8z"/>
<path d="M4861 4300 c-7 -25 -28 -92 -47 -150 -18 -58 -34 -108 -34 -113 0 -4
43 -7 95 -7 52 0 95 3 95 8 0 4 -22 74 -49 157 l-49 150 -11 -45z"/>
<path d="M1570 3905 c0 -17 7 -26 23 -30 34 -9 77 11 77 35 0 17 -6 20 -50 20
-47 0 -50 -2 -50 -25z"/>
<path d="M3743 3914 c-3 -8 1 -23 10 -31 23 -23 81 -6 85 25 3 20 -1 22 -43
22 -32 0 -47 -5 -52 -16z"/>
<path d="M5599 4153 c-29 -25 -59 -77 -59 -103 0 -6 46 -10 125 -10 l125 0 0
28 c0 94 -117 147 -191 85z"/>
<path d="M6629 4000 c-56 -10 -104 -33 -113 -55 -12 -32 -6 -83 13 -106 14
-18 28 -23 58 -23 79 2 123 53 123 142 0 58 3 56 -81 42z"/>
<path d="M2600 3173 c-25 -9 -40 -35 -40 -71 0 -52 15 -69 74 -86 65 -19 83
-48 50 -81 -13 -13 -28 -15 -71 -9 -50 6 -55 5 -51 -12 7 -36 139 -43 168 -9
20 24 23 88 7 110 -9 11 -39 27 -69 35 -42 13 -54 21 -56 38 -6 41 16 55 75
48 48 -6 53 -4 53 13 0 11 -9 21 -22 25 -27 7 -97 7 -118 -1z"/>
<path d="M2879 3161 c-20 -16 -24 -28 -23 -67 1 -53 14 -68 72 -79 47 -9 62
-21 62 -51 0 -31 -28 -45 -87 -41 -36 1 -48 -2 -48 -12 0 -19 60 -34 108 -28
60 8 78 31 75 91 l-3 51 -60 21 c-54 19 -60 24 -63 52 -4 37 18 47 78 37 35
-6 40 -4 40 13 0 25 -18 32 -80 32 -32 0 -55 -6 -71 -19z"/>
<path d="M3514 3170 c-42 -17 -54 -48 -54 -143 0 -79 2 -90 24 -112 48 -48
156 -39 183 15 15 30 17 174 3 201 -22 41 -102 61 -156 39z m104 -58 c15 -19
16 -135 2 -163 -13 -23 -81 -27 -99 -5 -8 9 -11 43 -9 92 3 71 5 80 26 90 28
14 62 8 80 -14z"/>
<path d="M2090 3030 l0 -140 90 0 c83 0 90 1 90 20 0 18 -7 20 -60 20 l-60 0
0 40 0 40 55 0 c52 0 55 1 55 25 0 24 -3 25 -55 25 l-55 0 0 35 0 35 60 0 c53
0 60 2 60 20 0 19 -7 20 -90 20 l-90 0 0 -140z"/>
<path d="M2390 3030 l0 -140 25 0 25 0 0 140 0 140 -25 0 -25 0 0 -140z"/>
<path d="M3150 3030 l0 -140 25 0 c23 0 25 4 25 45 l0 45 51 0 c50 0 87 12
101 34 4 6 8 35 8 64 0 79 -18 92 -125 92 l-85 0 0 -140z m148 88 c7 -7 12
-26 12 -43 0 -42 -16 -55 -67 -55 l-43 0 0 55 0 55 43 0 c24 0 48 -5 55 -12z"/>
<path d="M3790 3030 l0 -140 30 0 c29 0 30 2 30 45 0 41 2 45 24 45 18 0 34
-13 57 -45 26 -35 38 -45 61 -45 32 0 32 3 -10 59 -23 31 -24 35 -9 46 39 29
45 118 10 158 -13 14 -33 17 -105 17 l-88 0 0 -140z m158 55 c4 -46 -14 -65
-65 -65 l-33 0 0 56 0 55 48 -3 47 -3 3 -40z"/>
<path d="M4110 3150 c0 -17 7 -20 40 -20 l40 0 0 -120 0 -120 25 0 25 0 0 120
0 120 45 0 c38 0 45 3 45 20 0 19 -7 20 -110 20 -103 0 -110 -1 -110 -20z"/>
<path d="M4620 3030 l0 -140 30 0 30 0 0 60 0 60 55 0 55 0 0 -60 c0 -57 1
-60 25 -60 l25 0 0 140 0 140 -25 0 c-24 0 -25 -3 -25 -60 l0 -60 -55 0 -55 0
0 60 0 60 -30 0 -30 0 0 -140z"/>
<path d="M4960 3030 l0 -140 90 0 c83 0 90 1 90 20 0 18 -7 20 -60 20 l-60 0
0 40 0 40 55 0 c52 0 55 1 55 25 0 24 -3 25 -55 25 l-55 0 0 35 0 35 60 0 c53
0 60 2 60 20 0 19 -7 20 -90 20 l-90 0 0 -140z"/>
<path d="M5250 3030 l0 -140 30 0 c29 0 30 2 30 45 0 41 2 45 25 45 19 0 34
-12 57 -45 25 -35 38 -45 61 -45 31 0 30 3 -11 59 l-25 34 24 18 c20 15 24 27
24 72 0 84 -16 97 -127 97 l-88 0 0 -140z m158 49 c3 -50 -7 -59 -70 -59 -27
0 -28 2 -28 56 l0 55 48 -3 47 -3 3 -46z"/>
<path d="M5590 3030 l0 -140 25 0 c25 0 25 0 25 95 0 57 4 95 10 95 6 0 31
-43 57 -95 47 -95 48 -95 85 -95 l38 0 0 140 0 140 -25 0 -25 0 0 -100 c0 -55
-4 -100 -9 -100 -5 0 -30 45 -56 100 l-48 100 -39 0 -38 0 0 -140z"/>
<path d="M5950 3030 l0 -140 85 0 c78 0 85 2 85 20 0 18 -7 20 -60 20 l-60 0
0 40 0 39 58 3 c50 3 57 6 60 26 3 21 0 22 -57 22 l-61 0 0 35 0 35 60 0 c53
0 60 2 60 20 0 18 -7 20 -85 20 l-85 0 0 -140z"/>
<path d="M4410 3010 c0 -17 7 -20 50 -20 43 0 50 3 50 20 0 17 -7 20 -50 20
-43 0 -50 -3 -50 -20z"/>
</g>
</svg>
